<svg viewBox="0 0 66 50" fill="none" xmlns="http://www.w3.org/2000/svg">
  <defs>
    <linearGradient id="nf-a" x1="0" y1="50" x2="66" y2="0" gradientUnits="userSpaceOnUse">
      <stop stop-color="#021830"/>
      <stop offset="0.5" stop-color="#0d4a8f"/>
      <stop offset="1" stop-color="#1b73cd"/>
    </linearGradient>
    <linearGradient id="nf-b" x1="0" y1="50" x2="66" y2="0" gradientUnits="userSpaceOnUse">
      <stop stop-color="#1b73cd"/>
      <stop offset="1" stop-color="#64b2df"/>
    </linearGradient>
    <linearGradient id="nf-c" x1="32" y1="38" x2="66" y2="0" gradientUnits="userSpaceOnUse">
      <stop stop-color="#64b2df"/>
      <stop offset="1" stop-color="#00e0ff"/>
    </linearGradient>
  </defs>

  <!-- Band 1 – dark navy/blue -->
  <path d="M2 44 C7 34 14 24 22 19 C27 15 31 22 37 17 C42 13 48 6 54 1
           L58 6 C52 11 45 18 40 22 C35 26 31 20 26 24 C18 29 10 39 5 49 Z"
        fill="url(#nf-a)"/>

  <!-- Band 2 – blue -->
  <path d="M0 48 C5 38 12 28 19 23 C24 19 28 26 34 21 C39 17 45 10 51 5
           L55 10 C49 15 43 22 38 26 C33 30 29 24 24 28 C16 33 8 43 3 53 Z"
        fill="url(#nf-b)" opacity="0.85"/>

  <!-- Arrow – cyan -->
  <path d="M38 20 L50 3 L58 3 L58 11 L46 28 Z" fill="url(#nf-c)"/>
  <path d="M50 3 L66 3 L66 11 L58 11 Z" fill="url(#nf-c)"/>
</svg>
